{"title":"GTA V Official Trailer 720P - DJ DJERO","uid":6790729,"size":63467717,"categoryP":"video","categoryS":"other","magnet":"?xt=urn:btih:8077861971eff23c82bd47adccdc626e1fb4542b&amp;dn=GTA+V+Official+Trailer+720P+-+DJ+DJERO&amp;tr=udp%3A%2F%2Ftracker.openbittorrent.com%3A80&amp;tr=udp%3A%2F%2Fopen.demonii.com%3A1337&amp;tr=udp%3A%2F%2Ftracker.coppersurfer.tk%3A6969&amp;tr=udp%3A%2F%2Fexodus.desync.com%3A6969","seeders":0,"leechers":1,"uploader":"Dj_Djero","files":-1,"time":1320253878,"description":"GTA V Official Trailer 720P - DJ DJERO\n\nPLEASE SEED AND LEAVE A COMMENT\n\nINFO\n\nFormat                           : Windows Media\nFile size                        : 60.5 MiB\nDuration                         : 1mn 24s\nOverall bit rate mode            : Variable\nOverall bit rate                 : 6 026 Kbps\nMaximum Overall bit rate         : 6 240 Kbps\nEncoded date                     : UTC 2011-11-01 04:30:56.314\n\nVideo\nID                               : 2\nFormat                           : VC-1\nFormat profile                   : AP@L3\nCodec ID                         : WVC1\nCodec ID/Hint                    : Microsoft\nDescription of the codec         : Windows Media Video 9 Advanced Profile\nDuration                         : 1mn 24s\nBit rate mode                    : Variable\nBit rate                         : 6 000 Kbps\nWidth                            : 1 280 pixels\nHeight                           : 720 pixels\nDisplay aspect ratio             : 16:9\nFrame rate                       : 29.970 fps\nChroma subsampling               : 4:2:0\nBit depth                        : 8 bits\nScan type                        : Progressive\nCompression mode                 : Lossy\nBits/(Pixel*Frame)               : 0.217\nStream size                      : 60.3 MiB (100%)\n\nAudio\nID                               : 1\nFormat                           : WMA\nFormat profile                   : Pro\nCodec ID                         : 162\nCodec ID/Info                    : Windows Media Audio\nDescription of the codec         : Windows Media Audio 10 Professional - 192 kbps, 48 kHz, 2 channel 16 bit 1-pass CBR\nDuration                         : 1mn 24s\nBit rate mode                    : Constant\nBit rate                         : 192 Kbps\nChannel(s)                       : 2 channels\nSampling rate                    : 48.0 KHz\nBit depth                        : 16 bits\nStream size                      : 1.93 MiB (3%)\n\nPLEASE SEED AND LEAVE A COMMENT","torrent":{"xt":"urn:btih:8077861971eff23c82bd47adccdc626e1fb4542b","amp;dn":"GTA+V+Official+Trailer+720P+-+DJ+DJERO","amp;tr":["udp%3A%2F%2Ftracker.openbittorrent.com%3A80","udp%3A%2F%2Fopen.demonii.com%3A1337","udp%3A%2F%2Ftracker.coppersurfer.tk%3A6969","udp%3A%2F%2Fexodus.desync.com%3A6969"],"infoHash":"8077861971eff23c82bd47adccdc626e1fb4542b","infoHashBuffer":{"type":"Buffer","data":[128,119,134,25,113,239,242,60,130,189,71,173,204,220,98,110,31,180,84,43]},"announce":[],"urlList":[]}}